<svg xmlns="http://www.w3.org/2000/svg" xmlns:xlink="http://www.w3.org/1999/xlink" width="1080" zoomAndPan="magnify" viewBox="0 0 810 809.999993" height="1080" preserveAspectRatio="xMidYMid meet" version="1.0"><defs><clipPath id="2201d8706e"><path d="M 4 123 L 803 123 L 803 687.621094 L 4 687.621094 Z M 4 123 " clip-rule="nonzero"/></clipPath></defs><path fill="#9dcdff" d="M 799.421875 540.890625 C 755.730469 582.082031 641.050781 617.09375 522.292969 651.726562 L 127.515625 399.902344 C 332.714844 330.269531 582.011719 284.175781 795.945312 251.433594 Z M 799.421875 540.890625 " fill-opacity="1" fill-rule="nonzero"/><path fill="#67b0ff" d="M 799.0625 510.773438 C 757.222656 539.3125 629.109375 508.71875 545.679688 535.308594 C 606.578125 460.542969 752.9375 529.691406 798.703125 481.601562 Z M 799.0625 510.773438 " fill-opacity="1" fill-rule="nonzero"/><path fill="#8888e8" d="M 795.953125 215.40625 L 795.953125 251.441406 C 581.652344 345.324219 446.328125 305.792969 164.378906 407.941406 C 106.378906 416.773438 -20.191406 371.628906 258.003906 324.804688 C 361.738281 307.304688 506.960938 240.664062 755.175781 202.769531 C 780.910156 198.847656 779.847656 205.851562 795.953125 215.40625 Z M 795.953125 215.40625 " fill-opacity="1" fill-rule="nonzero"/><path fill="#a4a4f7" d="M 525.695312 618.648438 L 109.035156 376.609375 L 795.953125 215.402344 L 795.953125 170.597656 L 7.875 366.695312 L 518.085938 683.886719 L 799.433594 600.0625 L 799.433594 540.894531 Z M 525.695312 618.648438 " fill-opacity="1" fill-rule="nonzero"/><path fill="#f0e3e7" d="M 380.890625 292.890625 C 380.257812 334.160156 376.605469 385.726562 375.339844 396.09375 C 366 400.820312 354.367188 401.65625 339.183594 395.734375 C 339.710938 392.027344 343.207031 354.746094 344.992188 321.242188 C 346.308594 296.109375 347.460938 262.324219 345.214844 237.148438 C 342.421875 205.507812 329.519531 194.945312 326.796875 194.945312 L 326.746094 194.945312 C 324.5 195.082031 310.089844 208.605469 312.0625 263.582031 C 303.820312 270.171875 288.65625 269.488281 277.828125 264.8125 C 274.449219 171.179688 312.78125 161.507812 324.601562 160.773438 C 338.894531 159.882812 352.910156 167.945312 363.019531 182.875 C 371.894531 196.023438 377.546875 213.742188 379.347656 234.132812 C 381.007812 252.757812 381.144531 274.140625 380.890625 292.890625 Z M 380.890625 292.890625 " fill-opacity="1" fill-rule="nonzero"/><path fill="#f0e3e7" d="M 500.78125 358.359375 C 486.78125 361.957031 475.609375 366.921875 467.195312 371.628906 C 467.367188 370.15625 478.109375 257.8125 473.261719 203.097656 C 470.453125 171.441406 457.566406 160.875 454.84375 160.875 C 454.824219 160.875 454.789062 160.875 454.773438 160.894531 C 452.53125 161.03125 438.136719 174.539062 440.105469 229.527344 C 430.441406 236.257812 416.871094 235.433594 405.871094 230.761719 C 402.496094 137.128906 440.828125 127.441406 452.648438 126.703125 C 466.957031 125.816406 480.953125 133.878906 491.0625 148.824219 C 499.9375 161.957031 505.59375 179.675781 507.394531 200.082031 C 512.585938 258.566406 501.261719 354.527344 500.78125 358.359375 Z M 500.78125 358.359375 " fill-opacity="1" fill-rule="nonzero"/><path fill="#67b0ff" d="M 447.578125 385.820312 C 447.578125 385.820312 489.859375 367.441406 556.425781 376.019531 C 632.5 385.820312 704.464844 376.019531 686.292969 324.804688 C 668.972656 370.242188 615.355469 354.386719 547.507812 353.15625 C 500.003906 352.304688 460.492188 372.160156 447.578125 385.820312 Z M 447.578125 385.820312 " fill-opacity="1" fill-rule="nonzero"/><g clip-path="url(#2201d8706e)"><path fill="#000000" d="M 798.445312 596.777344 L 518.574219 680.160156 L 16.566406 368.0625 L 342.878906 286.863281 C 342.667969 296.515625 342.273438 307.035156 341.699219 318.480469 L 108.242188 373.273438 C 105.226562 373.980469 104.628906 378.015625 107.300781 379.566406 L 523.976562 621.613281 C 524.765625 622.070312 525.722656 622.207031 526.636719 621.945312 L 800.359375 544.1875 C 802.179688 543.667969 803.234375 541.777344 802.71875 539.957031 C 802.199219 538.136719 800.300781 537.082031 798.484375 537.597656 L 526.164062 614.960938 L 171.621094 409.007812 C 223.035156 390.992188 269.761719 375.722656 338.96875 359.9375 C 337.488281 378.769531 336.070312 393.285156 335.792969 395.253906 C 335.527344 397.125 336.828125 398.859375 338.703125 399.125 C 340.589844 399.386719 342.308594 398.085938 342.578125 396.214844 C 343.835938 387.378906 353.148438 287.507812 348.628906 236.84375 C 346.230469 209.660156 336.28125 195.730469 329.675781 192.347656 C 327.257812 191.109375 325.546875 191.257812 323.382812 192.898438 C 316.664062 197.992188 307.269531 217.769531 308.574219 261.863281 C 301.480469 266.335938 289.875 265.625 281.175781 262.460938 C 278.574219 173.996094 313.863281 164.871094 324.816406 164.191406 C 337.894531 163.378906 350.765625 170.886719 360.179688 184.789062 C 368.742188 197.476562 374.191406 214.644531 375.933594 234.4375 C 380.402344 284.476562 374.078125 378.15625 371.9375 395.679688 C 371.707031 397.554688 373.042969 399.261719 374.921875 399.492188 C 376.832031 399.71875 378.511719 398.363281 378.742188 396.507812 C 379.472656 390.503906 380.871094 372.476562 382.09375 350.777344 C 413.375 344.578125 442.195312 339.839844 466.730469 335.992188 C 465.488281 352.691406 464.363281 365.1875 463.957031 369.550781 C 451.523438 376.753906 445.355469 383.195312 445.085938 383.476562 C 443.019531 385.667969 444.601562 389.25 447.578125 389.25 C 448.484375 389.25 449.394531 388.894531 450.066406 388.1875 C 455.445312 382.519531 467.925781 373.90625 483.625 367.578125 C 519.121094 353.261719 551.257812 356.164062 587.757812 358.578125 C 636.4375 361.796875 674.894531 364.339844 689.496094 326.035156 C 690.171875 324.265625 689.285156 322.289062 687.515625 321.613281 C 685.75 320.945312 683.765625 321.828125 683.09375 323.59375 C 670.289062 357.167969 635.863281 354.894531 588.214844 351.746094 C 556.753906 349.667969 532.4375 347.707031 504.742188 353.914062 C 505.292969 348.957031 506.191406 340.5 507.175781 329.792969 C 600.84375 315.554688 689.585938 301.777344 797.324219 254.582031 C 799.058594 253.824219 799.847656 251.804688 799.085938 250.070312 C 798.328125 248.339844 796.300781 247.550781 794.574219 248.308594 C 688.296875 294.867188 600.402344 308.691406 507.804688 322.769531 C 508.757812 311.886719 509.730469 299.257812 510.519531 285.902344 L 796.730469 218.742188 C 798.574219 218.308594 799.714844 216.46875 799.285156 214.625 C 798.851562 212.785156 796.996094 211.644531 795.164062 212.074219 L 510.914062 278.773438 C 511.503906 267.609375 511.9375 256.082031 512.097656 244.765625 L 796.773438 173.925781 C 798.609375 173.46875 799.730469 171.609375 799.273438 169.777344 C 798.8125 167.941406 796.953125 166.828125 795.117188 167.28125 L 512.160156 237.691406 C 512.269531 206.625 511.335938 172.710938 493.902344 146.917969 C 483.09375 130.9375 467.945312 122.328125 452.4375 123.296875 C 439.828125 124.082031 398.960938 134.160156 402.445312 230.898438 C 402.496094 232.226562 403.308594 233.40625 404.53125 233.925781 C 415.121094 238.425781 430.542969 240.375 442.0625 232.351562 C 443.019531 231.6875 443.570312 230.582031 443.527344 229.421875 C 441.941406 185.144531 451.359375 168.15625 455.097656 164.675781 C 458.285156 166.886719 467.527344 177.285156 469.84375 203.414062 C 470.949219 215.855469 471.226562 231.378906 471.007812 247.925781 L 384.355469 269.492188 C 383.996094 238.832031 382.902344 206.230469 365.851562 180.972656 C 355.042969 165.003906 339.894531 156.398438 324.386719 157.371094 C 311.78125 158.15625 270.910156 168.230469 274.394531 264.953125 C 274.445312 266.273438 275.246094 267.449219 276.460938 267.972656 C 287.953125 272.929688 304.609375 273.9375 314.199219 266.269531 C 315.042969 265.589844 315.519531 264.554688 315.480469 263.472656 C 313.894531 219.265625 323.296875 202.265625 327.046875 198.746094 C 330.242188 200.953125 339.492188 211.34375 341.792969 237.46875 C 342.816406 248.890625 343.210938 262.910156 342.996094 279.785156 L 7.050781 363.371094 C 4.121094 364.101562 3.503906 368.003906 6.070312 369.601562 L 516.265625 686.789062 C 517.101562 687.308594 518.121094 687.445312 519.054688 687.164062 L 800.402344 603.339844 C 802.21875 602.800781 803.246094 600.894531 802.707031 599.082031 C 802.167969 597.269531 800.253906 596.238281 798.445312 596.777344 Z M 382.472656 343.71875 C 382.949219 334.636719 383.382812 325.097656 383.71875 315.652344 L 469.324219 295.570312 C 468.695312 307.414062 467.960938 318.800781 467.238281 328.976562 C 442.742188 332.8125 413.882812 337.53125 382.472656 343.71875 Z M 449.246094 160.925781 C 442.871094 168.308594 435.464844 188.265625 436.613281 227.699219 C 428.242188 232.550781 417.453125 231.425781 409.21875 228.410156 C 406.621094 139.945312 441.90625 130.808594 452.855469 130.128906 C 465.917969 129.300781 478.808594 136.832031 488.21875 150.746094 C 496.78125 163.410156 502.230469 180.578125 503.976562 200.390625 C 507.84375 243.949219 502.5 313.191406 497.640625 355.65625 C 488.292969 358.203125 479.429688 361.558594 471.1875 365.652344 C 474.957031 323.585938 480.414062 244.972656 476.671875 202.796875 C 474.5625 178.992188 466.675781 165.34375 460.335938 160.042969 C 455.964844 156.386719 452.972656 156.609375 449.246094 160.925781 Z M 470.886719 255.003906 C 470.65625 266.035156 470.222656 277.375 469.683594 288.449219 L 383.949219 308.5625 C 384.277344 297.785156 384.4375 287.980469 384.40625 276.527344 Z M 163.753906 404.4375 L 118.191406 377.972656 L 341.320312 325.605469 C 340.792969 334.839844 340.160156 344.132812 339.515625 352.789062 C 239.621094 375.425781 175.109375 400.996094 163.753906 404.4375 Z M 163.753906 404.4375 " fill-opacity="1" fill-rule="nonzero"/></g></svg>