<svg xmlns="http://www.w3.org/2000/svg" xmlns:xlink="http://www.w3.org/1999/xlink" width="1080" zoomAndPan="magnify" viewBox="0 0 810 809.999993" height="1080" preserveAspectRatio="xMidYMid meet" version="1.0"><defs><g/><clipPath id="86a9187d6a"><path d="M 16.222656 306.234375 L 794.46875 306.234375 L 794.46875 503.765625 L 16.222656 503.765625 Z M 16.222656 306.234375 " clip-rule="nonzero"/></clipPath><clipPath id="72496620a3"><path d="M 36 331 L 255.410156 331 L 255.410156 485.554688 L 36 485.554688 Z M 36 331 " clip-rule="nonzero"/></clipPath><clipPath id="192a54c451"><path d="M 6.53125 502.375 L 807.136719 502.375 L 807.136719 514.9375 L 6.53125 514.9375 Z M 6.53125 502.375 " clip-rule="nonzero"/></clipPath><clipPath id="492a32ef33"><path d="M 11.082031 503.859375 C 780.890625 503.953125 794.511719 501.300781 801.550781 502.945312 C 803.929688 503.496094 805.207031 504.042969 806.121094 505.324219 C 806.945312 506.601562 807.21875 509.070312 806.671875 510.441406 C 806.121094 511.8125 804.203125 513.460938 802.738281 513.734375 C 801.277344 514.101562 798.898438 513.460938 797.804688 512.363281 C 796.707031 511.355469 795.882812 508.980469 796.15625 507.515625 C 796.339844 506.054688 797.894531 504.042969 799.265625 503.402344 C 800.636719 502.761719 803.105469 502.945312 804.386719 503.675781 C 805.664062 504.5 806.855469 506.695312 807.035156 508.066406 C 807.21875 509.253906 806.855469 510.535156 806.121094 511.449219 C 805.207031 512.636719 803.929688 513.367188 801.550781 513.917969 C 794.511719 515.5625 780.890625 512.910156 757.027344 512.546875 C 659.476562 510.992188 40.613281 518.304688 11.082031 512.910156 C 9.160156 512.546875 8.886719 512.546875 8.0625 511.8125 C 7.242188 510.898438 6.507812 509.070312 6.601562 507.882812 C 6.691406 506.785156 7.332031 505.6875 8.0625 505.046875 C 8.886719 504.410156 11.082031 503.859375 11.082031 503.859375 " clip-rule="nonzero"/></clipPath><clipPath id="880e0fa24f"><path d="M 788.878906 292.167969 L 802.261719 292.167969 L 802.261719 514.148438 L 788.878906 514.148438 Z M 788.878906 292.167969 " clip-rule="nonzero"/></clipPath><clipPath id="ccc695efe7"><path d="M 790.59375 509.140625 C 790.59375 342.085938 787.460938 307.71875 789.8125 297.972656 C 790.421875 295.277344 791.03125 294.058594 792.335938 293.1875 C 793.640625 292.316406 796.25 291.96875 797.730469 292.578125 C 799.207031 293.1875 800.863281 295.1875 801.210938 296.753906 C 801.558594 298.320312 800.863281 300.757812 799.730469 301.976562 C 798.6875 303.105469 796.164062 303.976562 794.597656 303.714844 C 793.03125 303.453125 790.941406 301.886719 790.332031 300.410156 C 789.636719 298.929688 789.8125 296.320312 790.59375 295.015625 C 791.464844 293.621094 793.726562 292.402344 795.207031 292.230469 C 796.511719 292.054688 797.816406 292.402344 798.773438 293.1875 C 799.992188 294.144531 800.6875 295.277344 801.382812 297.972656 C 803.734375 307.71875 800.601562 342.085938 800.425781 369.925781 C 800.164062 408.820312 802.777344 496.785156 800.515625 509.140625 C 800.164062 511.140625 799.992188 511.664062 799.296875 512.445312 C 798.601562 513.316406 797.292969 514.097656 796.164062 514.097656 C 794.859375 514.183594 792.769531 513.402344 791.8125 512.445312 C 791.03125 511.664062 790.59375 509.140625 790.59375 509.140625 " clip-rule="nonzero"/></clipPath><clipPath id="e8486d7a04"><path d="M 3.574219 300.433594 L 807.101562 300.433594 L 807.101562 313.742188 L 3.574219 313.742188 Z M 3.574219 300.433594 " clip-rule="nonzero"/></clipPath><clipPath id="b9931872d3"><path d="M 802.59375 311.503906 C 89.664062 311.414062 23.210938 315.875 8.921875 312.414062 C 6.28125 311.777344 5.371094 311.230469 4.550781 310.046875 C 3.730469 308.863281 3.460938 306.496094 4.003906 305.132812 C 4.550781 303.765625 6.371094 302.21875 7.738281 301.945312 C 9.195312 301.582031 11.46875 302.21875 12.5625 303.21875 C 13.5625 304.222656 14.382812 306.496094 14.109375 307.953125 C 13.925781 309.410156 12.472656 311.230469 11.105469 311.867188 C 9.832031 312.503906 7.464844 312.414062 6.191406 311.59375 C 4.914062 310.867188 3.824219 308.773438 3.640625 307.40625 C 3.460938 306.222656 3.824219 305.042969 4.550781 304.128906 C 5.371094 303.039062 6.28125 302.492188 8.921875 301.765625 C 23.210938 298.304688 89.664062 302.765625 156.023438 302.949219 C 295.292969 303.492188 775.375 297.667969 802.59375 302.675781 C 804.503906 302.949219 804.777344 303.128906 805.503906 303.765625 C 806.324219 304.402344 806.871094 305.585938 807.054688 306.589844 C 807.144531 307.5 806.871094 308.773438 806.234375 309.59375 C 805.503906 310.503906 802.59375 311.503906 802.59375 311.503906 " clip-rule="nonzero"/></clipPath><clipPath id="5c794103f0"><path d="M 10.476562 292.136719 L 20.570312 292.136719 L 20.570312 517.828125 L 10.476562 517.828125 Z M 10.476562 292.136719 " clip-rule="nonzero"/></clipPath><clipPath id="5676fa80bf"><path d="M 20.5625 296.558594 C 20.046875 515.585938 19.617188 516.273438 18.671875 516.957031 C 17.644531 517.644531 15.582031 517.902344 14.46875 517.472656 C 13.351562 516.957031 12.066406 515.5 11.808594 514.296875 C 11.550781 513.097656 12.066406 511.121094 12.921875 510.265625 C 13.78125 509.320312 15.667969 508.71875 16.871094 508.890625 C 18.074219 509.0625 19.703125 510.351562 20.21875 511.464844 C 20.734375 512.582031 20.5625 514.554688 19.960938 515.585938 C 19.359375 516.703125 17.558594 517.644531 16.355469 517.730469 C 15.410156 517.902344 14.382812 517.558594 13.609375 516.957031 C 12.75 516.273438 12.238281 515.5 11.636719 513.269531 C 9.148438 503.3125 11.464844 456.023438 11.464844 423.496094 C 11.464844 384.789062 9.660156 307.71875 11.722656 296.558594 C 11.980469 294.84375 12.152344 294.414062 12.835938 293.640625 C 13.4375 292.957031 14.640625 292.269531 15.582031 292.183594 C 16.613281 292.097656 17.816406 292.355469 18.671875 292.957031 C 19.53125 293.640625 20.5625 296.558594 20.5625 296.558594 " clip-rule="nonzero"/></clipPath><clipPath id="38408395a3"><path d="M 324.703125 409.007812 L 333.511719 409.007812 L 333.511719 418.054688 L 324.703125 418.054688 Z M 324.703125 409.007812 " clip-rule="nonzero"/></clipPath><clipPath id="1701c6dd94"><path d="M 333.511719 412.113281 C 333.285156 415.339844 332.007812 416.992188 331.035156 417.59375 C 330.359375 417.96875 329.683594 418.117188 328.933594 417.96875 C 327.878906 417.742188 326.003906 416.617188 325.328125 415.792969 C 324.878906 415.191406 324.652344 414.515625 324.726562 413.765625 C 324.804688 412.640625 325.628906 410.6875 326.453125 409.9375 C 326.980469 409.335938 327.582031 409.109375 328.40625 409.035156 C 329.457031 408.960938 332.382812 410.3125 332.382812 410.3125 " clip-rule="nonzero"/></clipPath><clipPath id="c0b5e3f8a0"><path d="M 326.277344 404.582031 L 335.089844 404.582031 L 335.089844 413.625 L 326.277344 413.625 Z M 326.277344 404.582031 " clip-rule="nonzero"/></clipPath><clipPath id="5ac9e464bd"><path d="M 335.085938 407.683594 C 334.863281 410.914062 333.585938 412.5625 332.609375 413.164062 C 331.933594 413.539062 331.257812 413.691406 330.507812 413.539062 C 329.457031 413.316406 327.582031 412.261719 326.90625 411.363281 C 326.453125 410.761719 326.230469 410.085938 326.304688 409.335938 C 326.378906 408.210938 327.207031 406.257812 328.03125 405.507812 C 328.554688 404.980469 329.230469 404.683594 329.984375 404.605469 C 331.035156 404.53125 333.960938 405.882812 333.960938 405.882812 " clip-rule="nonzero"/></clipPath><clipPath id="629af7dd25"><path d="M 457.097656 406.0625 L 465.972656 406.0625 L 465.972656 414.996094 L 457.097656 414.996094 Z M 457.097656 406.0625 " clip-rule="nonzero"/></clipPath><clipPath id="72eb2d6d84"><path d="M 465.925781 409.1875 C 465.773438 412.414062 464.648438 414.140625 463.523438 414.664062 C 462.394531 415.191406 460.292969 414.890625 459.316406 414.441406 C 458.644531 414.066406 458.191406 413.464844 457.816406 412.863281 C 457.441406 412.261719 457.140625 411.589844 457.140625 410.835938 C 457.214844 409.710938 458.117188 407.757812 458.867188 407.007812 C 459.46875 406.484375 460.070312 406.183594 460.820312 406.109375 C 461.945312 406.035156 464.871094 407.382812 464.871094 407.382812 " clip-rule="nonzero"/></clipPath><clipPath id="ee677e695a"><path d="M 620.546875 407.488281 L 629.136719 407.488281 L 629.136719 416.308594 L 620.546875 416.308594 Z M 620.546875 407.488281 " clip-rule="nonzero"/></clipPath><clipPath id="174e16abbb"><path d="M 629.113281 410.613281 C 628.964844 413.765625 627.835938 415.566406 626.710938 416.015625 C 625.585938 416.542969 623.484375 416.242188 622.507812 415.792969 C 621.832031 415.492188 621.308594 414.964844 621.007812 414.289062 C 620.554688 413.238281 620.40625 411.136719 620.707031 410.085938 C 621.007812 409.335938 621.53125 408.8125 622.058594 408.359375 C 622.65625 407.984375 623.257812 407.535156 624.007812 407.535156 C 625.136719 407.460938 628.0625 408.734375 628.0625 408.734375 " clip-rule="nonzero"/></clipPath><clipPath id="254bced085"><path d="M 689.121094 406.515625 L 698.050781 406.515625 L 698.050781 415.386719 L 689.121094 415.386719 Z M 689.121094 406.515625 " clip-rule="nonzero"/></clipPath><clipPath id="0fb4df7871"><path d="M 698.023438 409.636719 C 697.796875 412.863281 696.671875 414.589844 695.546875 415.117188 C 694.417969 415.640625 692.316406 415.265625 691.34375 414.816406 C 690.667969 414.515625 690.214844 413.914062 689.839844 413.316406 C 689.464844 412.714844 689.164062 412.039062 689.164062 411.289062 C 689.238281 410.160156 690.140625 408.210938 690.890625 407.460938 C 691.492188 406.933594 692.09375 406.632812 692.84375 406.558594 C 693.96875 406.484375 696.898438 407.835938 696.898438 407.835938 " clip-rule="nonzero"/></clipPath></defs><g clip-path="url(#86a9187d6a)"><path fill="#d9d9d9" d="M 16.222656 306.234375 L 794.785156 306.234375 L 794.785156 503.765625 L 16.222656 503.765625 Z M 16.222656 306.234375 " fill-opacity="1" fill-rule="nonzero"/></g><path fill="#9dcdff" d="M 254.34375 445.433594 C 242.394531 456.695312 211.035156 466.269531 178.558594 475.742188 L 70.605469 406.878906 C 126.71875 387.835938 194.890625 375.230469 253.390625 366.277344 Z M 254.34375 445.433594 " fill-opacity="1" fill-rule="nonzero"/><path fill="#67b0ff" d="M 254.246094 437.199219 C 242.804688 445 207.769531 436.636719 184.957031 443.90625 C 201.609375 423.460938 241.632812 442.371094 254.148438 429.21875 Z M 254.246094 437.199219 " fill-opacity="1" fill-rule="nonzero"/><path fill="#8888e8" d="M 253.394531 356.425781 L 253.394531 366.28125 C 194.792969 391.953125 157.785156 381.144531 80.683594 409.078125 C 64.824219 411.492188 30.214844 399.144531 106.289062 386.34375 C 134.65625 381.554688 174.367188 363.332031 242.242188 352.972656 C 249.28125 351.898438 248.992188 353.8125 253.394531 356.425781 Z M 253.394531 356.425781 " fill-opacity="1" fill-rule="nonzero"/><path fill="#a4a4f7" d="M 179.488281 466.695312 L 65.550781 400.507812 L 253.394531 356.425781 L 253.394531 344.171875 L 37.886719 397.796875 L 177.410156 484.535156 L 254.347656 461.613281 L 254.347656 445.433594 Z M 179.488281 466.695312 " fill-opacity="1" fill-rule="nonzero"/><path fill="#f0e3e7" d="M 139.890625 377.617188 C 139.71875 388.902344 138.71875 403.003906 138.375 405.835938 C 135.820312 407.128906 132.640625 407.359375 128.488281 405.738281 C 128.632812 404.726562 129.585938 394.53125 130.074219 385.367188 C 130.433594 378.496094 130.75 369.257812 130.136719 362.371094 C 129.371094 353.71875 125.84375 350.832031 125.101562 350.832031 L 125.085938 350.832031 C 124.472656 350.867188 120.53125 354.566406 121.070312 369.601562 C 118.816406 371.402344 114.667969 371.214844 111.707031 369.9375 C 110.785156 344.332031 121.265625 341.6875 124.5 341.488281 C 128.40625 341.242188 132.238281 343.449219 135.003906 347.53125 C 137.433594 351.125 138.976562 355.972656 139.46875 361.546875 C 139.925781 366.640625 139.960938 372.488281 139.890625 377.617188 Z M 139.890625 377.617188 " fill-opacity="1" fill-rule="nonzero"/><path fill="#f0e3e7" d="M 172.675781 395.519531 C 168.847656 396.5 165.792969 397.859375 163.492188 399.148438 C 163.539062 398.746094 166.476562 368.023438 165.152344 353.058594 C 164.382812 344.402344 160.859375 341.515625 160.113281 341.515625 C 160.109375 341.515625 160.101562 341.515625 160.097656 341.519531 C 159.484375 341.558594 155.546875 345.25 156.085938 360.289062 C 153.441406 362.128906 149.730469 361.902344 146.722656 360.625 C 145.800781 335.019531 156.28125 332.371094 159.515625 332.167969 C 163.425781 331.925781 167.253906 334.132812 170.019531 338.21875 C 172.445312 341.808594 173.992188 346.65625 174.484375 352.234375 C 175.90625 368.230469 172.808594 394.46875 172.675781 395.519531 Z M 172.675781 395.519531 " fill-opacity="1" fill-rule="nonzero"/><path fill="#67b0ff" d="M 158.128906 403.027344 C 158.128906 403.027344 169.691406 398.003906 187.894531 400.347656 C 208.695312 403.027344 228.375 400.347656 223.40625 386.34375 C 218.671875 398.765625 204.007812 394.433594 185.453125 394.09375 C 172.464844 393.863281 161.660156 399.292969 158.128906 403.027344 Z M 158.128906 403.027344 " fill-opacity="1" fill-rule="nonzero"/><g clip-path="url(#72496620a3)"><path fill="#000000" d="M 254.074219 460.714844 L 177.542969 483.515625 L 40.265625 398.171875 L 129.496094 375.96875 C 129.441406 378.605469 129.332031 381.484375 129.175781 384.613281 L 65.332031 399.597656 C 64.511719 399.789062 64.347656 400.894531 65.078125 401.316406 L 179.019531 467.507812 C 179.234375 467.632812 179.496094 467.667969 179.746094 467.597656 L 254.597656 446.335938 C 255.097656 446.191406 255.386719 445.675781 255.246094 445.175781 C 255.101562 444.679688 254.582031 444.390625 254.085938 444.53125 L 179.617188 465.6875 L 82.667969 409.367188 C 96.726562 404.441406 109.503906 400.265625 128.429688 395.949219 C 128.023438 401.097656 127.636719 405.070312 127.558594 405.605469 C 127.488281 406.117188 127.84375 406.59375 128.355469 406.664062 C 128.871094 406.738281 129.34375 406.382812 129.414062 405.871094 C 129.757812 403.453125 132.304688 376.144531 131.070312 362.289062 C 130.414062 354.855469 127.695312 351.046875 125.886719 350.121094 C 125.226562 349.78125 124.757812 349.824219 124.164062 350.273438 C 122.328125 351.664062 119.761719 357.074219 120.117188 369.128906 C 118.175781 370.351562 115.003906 370.160156 112.625 369.292969 C 111.914062 345.101562 121.5625 342.605469 124.558594 342.421875 C 128.132812 342.199219 131.652344 344.25 134.230469 348.054688 C 136.570312 351.523438 138.058594 356.21875 138.539062 361.628906 C 139.757812 375.3125 138.03125 400.933594 137.445312 405.722656 C 137.382812 406.238281 137.746094 406.703125 138.261719 406.765625 C 138.78125 406.828125 139.242188 406.457031 139.304688 405.949219 C 139.503906 404.308594 139.886719 399.378906 140.21875 393.445312 C 148.773438 391.75 156.65625 390.453125 163.367188 389.402344 C 163.027344 393.96875 162.71875 397.386719 162.605469 398.578125 C 159.207031 400.546875 157.519531 402.308594 157.445312 402.386719 C 156.882812 402.984375 157.316406 403.964844 158.128906 403.964844 C 158.375 403.964844 158.625 403.867188 158.808594 403.675781 C 160.28125 402.125 163.691406 399.769531 167.984375 398.039062 C 177.691406 394.125 186.480469 394.917969 196.460938 395.578125 C 209.773438 396.457031 220.289062 397.152344 224.28125 386.679688 C 224.46875 386.195312 224.226562 385.652344 223.742188 385.46875 C 223.257812 385.285156 222.714844 385.527344 222.53125 386.011719 C 219.03125 395.191406 209.617188 394.570312 196.585938 393.710938 C 187.984375 393.140625 181.335938 392.605469 173.761719 394.300781 C 173.910156 392.945312 174.15625 390.632812 174.425781 387.707031 C 200.039062 383.8125 224.308594 380.046875 253.769531 367.140625 C 254.242188 366.929688 254.460938 366.378906 254.25 365.90625 C 254.042969 365.433594 253.488281 365.21875 253.015625 365.425781 C 223.957031 378.15625 199.917969 381.9375 174.597656 385.785156 C 174.859375 382.808594 175.125 379.355469 175.339844 375.703125 L 253.605469 357.339844 C 254.109375 357.21875 254.421875 356.714844 254.304688 356.210938 C 254.1875 355.710938 253.679688 355.398438 253.179688 355.515625 L 175.449219 373.753906 C 175.609375 370.703125 175.726562 367.550781 175.769531 364.453125 L 253.621094 345.082031 C 254.121094 344.957031 254.425781 344.449219 254.300781 343.949219 C 254.175781 343.445312 253.667969 343.140625 253.164062 343.265625 L 175.789062 362.519531 C 175.820312 354.023438 175.5625 344.75 170.796875 337.699219 C 167.839844 333.328125 163.699219 330.972656 159.457031 331.238281 C 156.007812 331.453125 144.832031 334.210938 145.785156 360.664062 C 145.800781 361.027344 146.023438 361.347656 146.355469 361.492188 C 149.253906 362.722656 153.46875 363.253906 156.621094 361.058594 C 156.882812 360.878906 157.03125 360.578125 157.019531 360.257812 C 156.585938 348.152344 159.164062 343.503906 160.183594 342.554688 C 161.054688 343.15625 163.582031 346 164.21875 353.144531 C 164.519531 356.550781 164.597656 360.792969 164.535156 365.320312 L 140.839844 371.214844 C 140.742188 362.832031 140.441406 353.917969 135.78125 347.007812 C 132.824219 342.644531 128.683594 340.289062 124.441406 340.554688 C 120.992188 340.769531 109.816406 343.527344 110.769531 369.976562 C 110.785156 370.335938 111.003906 370.65625 111.335938 370.800781 C 114.476562 372.15625 119.03125 372.433594 121.65625 370.335938 C 121.886719 370.148438 122.015625 369.867188 122.003906 369.570312 C 121.570312 357.480469 124.144531 352.832031 125.167969 351.871094 C 126.042969 352.472656 128.570312 355.316406 129.203125 362.460938 C 129.480469 365.582031 129.589844 369.417969 129.53125 374.03125 L 37.664062 396.886719 C 36.863281 397.089844 36.691406 398.15625 37.394531 398.59375 L 176.910156 485.332031 C 177.140625 485.472656 177.417969 485.507812 177.675781 485.433594 L 254.609375 462.511719 C 255.105469 462.363281 255.390625 461.839844 255.242188 461.347656 C 255.09375 460.851562 254.570312 460.570312 254.074219 460.714844 Z M 140.324219 391.515625 C 140.453125 389.03125 140.574219 386.421875 140.664062 383.839844 L 164.074219 378.347656 C 163.902344 381.585938 163.703125 384.699219 163.503906 387.484375 C 156.804688 388.53125 148.914062 389.824219 140.324219 391.515625 Z M 158.585938 341.527344 C 156.839844 343.546875 154.816406 349.003906 155.128906 359.789062 C 152.839844 361.113281 149.890625 360.808594 147.640625 359.984375 C 146.929688 335.792969 156.578125 333.292969 159.570312 333.105469 C 163.144531 332.878906 166.667969 334.9375 169.242188 338.746094 C 171.582031 342.207031 173.074219 346.902344 173.550781 352.320312 C 174.609375 364.230469 173.148438 383.167969 171.820312 394.777344 C 169.261719 395.476562 166.839844 396.394531 164.585938 397.511719 C 165.613281 386.007812 167.105469 364.511719 166.085938 352.976562 C 165.507812 346.46875 163.351562 342.734375 161.617188 341.285156 C 160.421875 340.285156 159.605469 340.347656 158.585938 341.527344 Z M 164.503906 367.253906 C 164.4375 370.269531 164.320312 373.371094 164.171875 376.402344 L 140.730469 381.902344 C 140.816406 378.953125 140.863281 376.273438 140.855469 373.140625 Z M 80.515625 408.117188 L 68.054688 400.882812 L 129.070312 386.5625 C 128.925781 389.085938 128.753906 391.628906 128.578125 393.996094 C 101.261719 400.183594 83.621094 407.175781 80.515625 408.117188 Z M 80.515625 408.117188 " fill-opacity="1" fill-rule="nonzero"/></g><path stroke-linecap="butt" transform="matrix(0.943244, 0, 0, 0.943244, 219.309806, 305.605111)" fill="none" stroke-linejoin="miter" d="M 0.392137 132.190423 L 11.45767 118.321236 C 16.882763 123.029885 22.100791 126.483723 27.115895 128.674466 C 32.151707 130.844504 37.464984 131.929522 43.064011 131.929522 C 48.836973 131.929522 53.458655 130.86521 56.933199 128.740727 C 60.403601 126.612103 62.138803 123.771177 62.138803 120.209665 C 62.138803 117.000164 60.958535 114.502965 58.593857 112.722209 C 56.249886 110.945595 52.319799 109.607958 46.807739 108.721721 L 28.254751 105.528785 C 20.27034 104.207713 14.203347 101.408199 10.057913 97.130244 C 5.933186 92.856431 3.874964 87.344371 3.874964 80.594065 C 3.874964 71.89321 7.183857 65.014524 13.801641 59.958006 C 20.419426 54.880782 29.3729 52.34217 40.657921 52.34217 C 47.428933 52.34217 54.253783 53.501732 61.132469 55.824997 C 68.011155 58.123414 74.032594 61.312209 79.196785 65.395523 L 68.814566 79.815502 C 63.820167 75.972383 58.929302 73.152163 54.133685 71.350701 C 49.338069 69.528533 44.401649 68.617448 39.320283 68.617448 C 34.176799 68.617448 30.043789 69.569945 26.921255 71.479081 C 23.815286 73.392358 22.266442 75.939253 22.266442 79.132189 C 22.266442 81.973115 23.2852 84.196989 25.326857 85.803811 C 27.364373 87.410632 30.793363 88.55777 35.609686 89.253507 L 53.189471 92.214531 C 62.432835 93.713678 69.390205 96.66642 74.0533 101.068613 C 78.720537 105.474948 81.052084 111.268616 81.052084 118.453758 C 81.052084 127.523187 77.474008 134.770448 70.309572 140.195541 C 63.169985 145.620634 53.645013 148.33318 41.730515 148.33318 C 34.263766 148.33318 26.908831 146.912717 19.66157 144.071791 C 12.414308 141.226723 5.991164 137.267648 0.392137 132.190423 Z M 78.269136 112.332928 C 78.269136 107.27641 79.221633 102.547055 81.130769 98.14072 C 83.039904 93.734385 85.657201 89.916114 88.978517 86.681764 C 92.32054 83.426709 96.258909 80.86739 100.793623 78.999668 C 105.328338 77.136086 110.177791 76.200154 115.341983 76.200154 C 120.485467 76.200154 125.326638 77.136086 129.861353 78.999668 C 134.396068 80.86739 138.326154 83.426709 141.643329 86.681764 C 144.985352 89.916114 147.610931 93.734385 149.520066 98.14072 C 151.433343 102.547055 152.385841 107.27641 152.385841 112.332928 C 152.385841 117.410152 151.433343 122.151931 149.520066 126.558266 C 147.610931 130.939753 144.985352 134.737318 141.643329 137.950961 C 138.326154 141.139756 134.396068 143.670085 129.861353 145.533667 C 125.326638 147.401389 120.485467 148.33318 115.341983 148.33318 C 110.177791 148.33318 105.328338 147.401389 100.793623 145.533667 C 96.258909 143.670085 92.32054 141.139756 88.978517 137.950961 C 85.657201 134.737318 83.039904 130.939753 81.130769 126.558266 C 79.221633 122.151931 78.269136 117.410152 78.269136 112.332928 Z M 115.341983 132.480314 C 120.659402 132.480314 125.185834 130.529765 128.917138 126.624527 C 132.648442 122.694441 134.516165 117.931955 134.516165 112.332928 C 134.516165 106.646934 132.648442 101.851317 128.917138 97.946079 C 125.185834 94.015993 120.659402 92.05302 115.341983 92.05302 C 110.003857 92.05302 105.469142 94.015993 101.737838 97.946079 C 98.002393 101.851317 96.138811 106.646934 96.138811 112.332928 C 96.138811 117.931955 98.002393 122.694441 101.737838 126.624527 C 105.469142 130.529765 110.003857 132.480314 115.341983 132.480314 Z M 153.586815 146.999684 L 153.586815 77.53365 L 171.849914 77.53365 L 171.849914 83.004297 C 174.516906 80.788706 177.469647 79.107341 180.703996 77.960203 C 183.959052 76.788218 187.495715 76.200154 191.313986 76.200154 C 199.323245 76.200154 205.895476 78.78432 211.038961 83.948512 C 216.207293 89.091996 218.787318 95.709781 218.787318 103.806007 L 218.787318 146.999684 L 200.528361 146.999684 L 200.528361 106.472999 C 200.528361 102.112219 199.215572 98.596262 196.585851 95.925128 C 193.960272 93.258136 190.477445 91.92464 186.137371 91.92464 C 183.101804 91.92464 180.356128 92.529269 177.904483 93.746809 C 175.473544 94.939501 173.452594 96.641572 171.849914 98.857163 L 171.849914 146.999684 Z M 254.650908 147.388966 C 249.768325 147.388966 245.167349 146.457175 240.847981 144.589452 C 236.54932 142.725871 232.818016 140.195541 229.649928 137.006746 C 226.502546 133.793104 224.01777 130.041093 222.195602 125.742432 C 220.373433 121.427205 219.462349 116.780676 219.462349 111.811125 C 219.462349 106.907835 220.39414 102.30686 222.261862 98.01234 C 224.125444 93.692972 226.655773 89.93682 229.844568 86.748025 C 233.058211 83.534382 236.830928 81.020618 241.171002 79.194308 C 245.535924 77.37214 250.211443 76.461056 255.2017 76.461056 C 258.651396 76.461056 261.952006 76.949728 265.099388 77.927073 C 268.267477 78.904418 271.2285 80.279327 273.98246 82.060082 L 273.98246 77.53365 L 291.984656 77.53365 L 291.984656 146.999684 C 291.984656 156.156081 289.023633 163.221125 283.097444 168.190676 C 277.196102 173.180933 268.689888 175.678132 257.578802 175.678132 C 252.261382 175.678132 247.130322 175.135623 242.181477 174.050604 C 237.257481 172.986292 232.751755 171.433308 228.672583 169.395792 L 235.054314 155.137323 C 238.872585 157.005046 242.603889 158.404803 246.252368 159.336593 C 249.896705 160.268384 253.541042 160.73635 257.18952 160.73635 C 262.614613 160.73635 266.726916 159.55194 269.526429 157.187263 C 272.325943 154.843291 273.7257 151.406019 273.7257 146.871304 L 273.7257 141.139756 C 270.967599 143.181413 267.961021 144.730256 264.705965 145.794568 C 261.475757 146.85888 258.121311 147.388966 254.650908 147.388966 Z M 237.460404 111.811125 C 237.460404 117.410152 239.394388 122.164355 243.254072 126.069594 C 247.117898 129.974832 251.851395 131.929522 257.450422 131.929522 C 260.74689 131.929522 263.774175 131.374589 266.532275 130.268864 C 269.286234 129.163139 271.684042 127.630861 273.7257 125.680312 L 273.7257 98.33536 C 271.77101 96.384812 269.373202 94.852534 266.532275 93.746809 C 263.687207 92.616236 260.705477 92.05302 257.578802 92.05302 C 251.979775 92.05302 247.225571 93.97458 243.320333 97.813558 C 239.415094 101.63597 237.460404 106.299065 237.460404 111.811125 Z M 314.384905 146.999684 L 314.384905 53.675666 L 361.19393 53.675666 C 365.728645 53.675666 369.927915 54.412816 373.791741 55.887116 C 377.651425 57.344851 380.964459 59.36166 383.718418 61.941685 C 386.476519 64.525852 388.621708 67.619397 390.162269 71.222321 C 391.727677 74.800397 392.50624 78.730484 392.50624 83.004297 C 392.50624 87.170437 391.727677 91.013556 390.162269 94.525372 C 388.621708 98.041329 386.451671 101.093461 383.652157 103.673486 C 380.852644 106.257652 377.543751 108.262038 373.72548 109.694925 C 369.907209 111.107105 365.728645 111.811125 361.19393 111.811125 L 333.720598 111.811125 L 333.720598 146.999684 Z M 359.0446 70.340226 L 333.720598 70.340226 L 333.720598 95.796748 L 359.0446 95.796748 C 363.231446 95.796748 366.585893 94.645469 369.103798 92.347052 C 371.64241 90.023787 372.913787 86.95509 372.913787 83.132677 C 372.913787 79.314406 371.64241 76.233284 369.103798 73.889313 C 366.585893 71.524635 363.231446 70.340226 359.0446 70.340226 Z M 390.787604 112.332928 C 390.787604 107.27641 391.740101 102.547055 393.649237 98.14072 C 395.562513 93.734385 398.175669 89.916114 401.496985 86.681764 C 404.839008 83.426709 408.777377 80.86739 413.312091 78.999668 C 417.846806 77.136086 422.696259 76.200154 427.864592 76.200154 C 433.003935 76.200154 437.845106 77.136086 442.379821 78.999668 C 446.914536 80.86739 450.844622 83.426709 454.165938 86.681764 C 457.507961 89.916114 460.13354 93.734385 462.042676 98.14072 C 463.951811 102.547055 464.904309 107.27641 464.904309 112.332928 C 464.904309 117.410152 463.951811 122.151931 462.042676 126.558266 C 460.13354 130.939753 457.507961 134.737318 454.165938 137.950961 C 450.844622 141.139756 446.914536 143.670085 442.379821 145.533667 C 437.845106 147.401389 433.003935 148.33318 427.864592 148.33318 C 422.696259 148.33318 417.846806 147.401389 413.312091 145.533667 C 408.777377 143.670085 404.839008 141.139756 401.496985 137.950961 C 398.175669 134.737318 395.562513 130.939753 393.649237 126.558266 C 391.740101 122.151931 390.787604 117.410152 390.787604 112.332928 Z M 427.864592 132.480314 C 433.17787 132.480314 437.704302 130.529765 441.435606 126.624527 C 445.171052 122.694441 447.034633 117.931955 447.034633 112.332928 C 447.034633 106.646934 445.171052 101.851317 441.435606 97.946079 C 437.704302 94.015993 433.17787 92.05302 427.864592 92.05302 C 422.522325 92.05302 417.98761 94.015993 414.256306 97.946079 C 410.525002 101.851317 408.657279 106.646934 408.657279 112.332928 C 408.657279 117.931955 410.525002 122.694441 414.256306 126.624527 C 417.98761 130.529765 422.522325 132.480314 427.864592 132.480314 Z M 462.916488 112.332928 C 462.916488 107.27641 463.873127 102.547055 465.782263 98.14072 C 467.691398 93.734385 470.304554 89.916114 473.62587 86.681764 C 476.967893 83.426709 480.906261 80.86739 485.440976 78.999668 C 489.979832 77.136086 494.829285 76.200154 499.993477 76.200154 C 505.136961 76.200154 509.973991 77.136086 514.508706 78.999668 C 519.047562 80.86739 522.973507 83.426709 526.294823 86.681764 C 529.636846 89.916114 532.262425 93.734385 534.17156 98.14072 C 536.080696 102.547055 537.037335 107.27641 537.037335 112.332928 C 537.037335 117.410152 536.080696 122.151931 534.17156 126.558266 C 532.262425 130.939753 529.636846 134.737318 526.294823 137.950961 C 522.973507 141.139756 519.047562 143.670085 514.508706 145.533667 C 509.973991 147.401389 505.136961 148.33318 499.993477 148.33318 C 494.829285 148.33318 489.979832 147.401389 485.440976 145.533667 C 480.906261 143.670085 476.967893 141.139756 473.62587 137.950961 C 470.304554 134.737318 467.691398 130.939753 465.782263 126.558266 C 463.873127 122.151931 462.916488 117.410152 462.916488 112.332928 Z M 499.993477 132.480314 C 505.310896 132.480314 509.833187 130.529765 513.568632 126.624527 C 517.299936 122.694441 519.163518 117.931955 519.163518 112.332928 C 519.163518 106.646934 517.299936 101.851317 513.568632 97.946079 C 509.833187 94.015993 505.310896 92.05302 499.993477 92.05302 C 494.655351 92.05302 490.120636 94.015993 486.385191 97.946079 C 482.653887 101.851317 480.786164 106.646934 480.786164 112.332928 C 480.786164 117.931955 482.653887 122.694441 486.385191 126.624527 C 490.120636 130.529765 494.655351 132.480314 499.993477 132.480314 Z M 556.497266 49.671037 L 556.497266 146.999684 L 538.238309 146.999684 L 538.238309 53.675666 Z M 556.497266 49.671037 " stroke="#006c27" stroke-width="34.999912" stroke-opacity="1" stroke-miterlimit="4"/><g fill="#1dd760" fill-opacity="1"><g transform="translate(219.309806, 444.262017)"><g><path d="M 0.375 -13.953125 L 10.8125 -27.046875 C 15.925781 -22.597656 20.851562 -19.347656 25.59375 -17.296875 C 30.332031 -15.242188 35.34375 -14.21875 40.625 -14.21875 C 46.070312 -14.21875 50.429688 -15.222656 53.703125 -17.234375 C 56.972656 -19.242188 58.609375 -21.925781 58.609375 -25.28125 C 58.609375 -28.300781 57.492188 -30.648438 55.265625 -32.328125 C 53.046875 -34.003906 49.335938 -35.257812 44.140625 -36.09375 L 26.65625 -39.109375 C 19.113281 -40.367188 13.390625 -43.007812 9.484375 -47.03125 C 5.585938 -51.0625 3.640625 -56.257812 3.640625 -62.625 C 3.640625 -70.84375 6.765625 -77.34375 13.015625 -82.125 C 19.265625 -86.90625 27.710938 -89.296875 38.359375 -89.296875 C 44.734375 -89.296875 51.164062 -88.203125 57.65625 -86.015625 C 64.15625 -83.835938 69.835938 -80.820312 74.703125 -76.96875 L 64.890625 -63.390625 C 60.203125 -66.992188 55.59375 -69.65625 51.0625 -71.375 C 46.53125 -73.09375 41.875 -73.953125 37.09375 -73.953125 C 32.238281 -73.953125 28.34375 -73.050781 25.40625 -71.25 C 22.46875 -69.445312 21 -67.035156 21 -64.015625 C 21 -61.328125 21.960938 -59.226562 23.890625 -57.71875 C 25.816406 -56.21875 29.046875 -55.128906 33.578125 -54.453125 L 50.1875 -51.6875 C 58.90625 -50.257812 65.460938 -47.46875 69.859375 -43.3125 C 74.265625 -39.164062 76.46875 -33.695312 76.46875 -26.90625 C 76.46875 -18.351562 73.09375 -11.519531 66.34375 -6.40625 C 59.59375 -1.300781 50.597656 1.25 39.359375 1.25 C 32.316406 1.25 25.378906 -0.0859375 18.546875 -2.765625 C 11.710938 -5.453125 5.65625 -9.179688 0.375 -13.953125 Z M 0.375 -13.953125 "/></g></g></g><g fill="#1dd760" fill-opacity="1"><g transform="translate(289.35838, 444.262017)"><g><path d="M 3.765625 -32.703125 C 3.765625 -37.484375 4.664062 -41.945312 6.46875 -46.09375 C 8.28125 -50.238281 10.753906 -53.84375 13.890625 -56.90625 C 17.035156 -59.96875 20.742188 -62.378906 25.015625 -64.140625 C 29.296875 -65.898438 33.867188 -66.78125 38.734375 -66.78125 C 43.597656 -66.78125 48.164062 -65.898438 52.4375 -64.140625 C 56.71875 -62.378906 60.429688 -59.96875 63.578125 -56.90625 C 66.722656 -53.84375 69.195312 -50.238281 71 -46.09375 C 72.800781 -41.945312 73.703125 -37.484375 73.703125 -32.703125 C 73.703125 -27.921875 72.800781 -23.453125 71 -19.296875 C 69.195312 -15.148438 66.722656 -11.566406 63.578125 -8.546875 C 60.429688 -5.535156 56.71875 -3.148438 52.4375 -1.390625 C 48.164062 0.367188 43.597656 1.25 38.734375 1.25 C 33.867188 1.25 29.296875 0.367188 25.015625 -1.390625 C 20.742188 -3.148438 17.035156 -5.535156 13.890625 -8.546875 C 10.753906 -11.566406 8.28125 -15.148438 6.46875 -19.296875 C 4.664062 -23.453125 3.765625 -27.921875 3.765625 -32.703125 Z M 38.734375 -13.703125 C 43.765625 -13.703125 48.039062 -15.546875 51.5625 -19.234375 C 55.082031 -22.929688 56.84375 -27.421875 56.84375 -32.703125 C 56.84375 -38.066406 55.082031 -42.59375 51.5625 -46.28125 C 48.039062 -49.96875 43.765625 -51.8125 38.734375 -51.8125 C 33.703125 -51.8125 29.425781 -49.96875 25.90625 -46.28125 C 22.382812 -42.59375 20.625 -38.066406 20.625 -32.703125 C 20.625 -27.421875 22.382812 -22.929688 25.90625 -19.234375 C 29.425781 -15.546875 33.703125 -13.703125 38.734375 -13.703125 Z M 38.734375 -13.703125 "/></g></g></g><g fill="#1dd760" fill-opacity="1"><g transform="translate(357.394773, 444.262017)"><g><path d="M 6.796875 0 L 6.796875 -65.53125 L 24.015625 -65.53125 L 24.015625 -60.375 C 26.535156 -62.46875 29.320312 -64.054688 32.375 -65.140625 C 35.4375 -66.234375 38.773438 -66.78125 42.390625 -66.78125 C 49.929688 -66.78125 56.132812 -64.347656 61 -59.484375 C 65.863281 -54.617188 68.296875 -48.375 68.296875 -40.75 L 68.296875 0 L 51.0625 0 L 51.0625 -38.234375 C 51.0625 -42.335938 49.820312 -45.644531 47.34375 -48.15625 C 44.875 -50.675781 41.585938 -51.9375 37.484375 -51.9375 C 34.628906 -51.9375 32.046875 -51.367188 29.734375 -50.234375 C 27.429688 -49.109375 25.523438 -47.5 24.015625 -45.40625 L 24.015625 0 Z M 6.796875 0 "/></g></g></g><g fill="#1dd760" fill-opacity="1"><g transform="translate(422.538673, 444.262017)"><g><path d="M 36.96875 0.375 C 32.363281 0.375 28.023438 -0.503906 23.953125 -2.265625 C 19.890625 -4.023438 16.367188 -6.410156 13.390625 -9.421875 C 10.410156 -12.441406 8.0625 -15.984375 6.34375 -20.046875 C 4.625 -24.117188 3.765625 -28.503906 3.765625 -33.203125 C 3.765625 -37.816406 4.644531 -42.15625 6.40625 -46.21875 C 8.175781 -50.28125 10.566406 -53.820312 13.578125 -56.84375 C 16.597656 -59.863281 20.160156 -62.234375 24.265625 -63.953125 C 28.378906 -65.671875 32.785156 -66.53125 37.484375 -66.53125 C 40.753906 -66.53125 43.875 -66.066406 46.84375 -65.140625 C 49.820312 -64.222656 52.613281 -62.925781 55.21875 -61.25 L 55.21875 -65.53125 L 72.1875 -65.53125 L 72.1875 0 C 72.1875 8.632812 69.398438 15.300781 63.828125 20 C 58.253906 24.695312 50.222656 27.046875 39.734375 27.046875 C 34.710938 27.046875 29.875 26.539062 25.21875 25.53125 C 20.5625 24.519531 16.304688 23.050781 12.453125 21.125 L 18.484375 7.671875 C 22.085938 9.429688 25.609375 10.75 29.046875 11.625 C 32.484375 12.507812 35.921875 12.953125 39.359375 12.953125 C 44.472656 12.953125 48.347656 11.835938 50.984375 9.609375 C 53.628906 7.390625 54.953125 4.144531 54.953125 -0.125 L 54.953125 -5.53125 C 52.359375 -3.601562 49.53125 -2.132812 46.46875 -1.125 C 43.40625 -0.125 40.238281 0.375 36.96875 0.375 Z M 20.75 -33.203125 C 20.75 -27.921875 22.570312 -23.4375 26.21875 -19.75 C 29.863281 -16.0625 34.328125 -14.21875 39.609375 -14.21875 C 42.710938 -14.21875 45.5625 -14.738281 48.15625 -15.78125 C 50.757812 -16.832031 53.023438 -18.28125 54.953125 -20.125 L 54.953125 -45.90625 C 53.109375 -47.75 50.84375 -49.191406 48.15625 -50.234375 C 45.476562 -51.285156 42.671875 -51.8125 39.734375 -51.8125 C 34.453125 -51.8125 29.96875 -50.007812 26.28125 -46.40625 C 22.59375 -42.800781 20.75 -38.398438 20.75 -33.203125 Z M 20.75 -33.203125 "/></g></g></g><g fill="#1dd760" fill-opacity="1"><g transform="translate(492.084198, 444.262017)"><g/></g></g><g fill="#1dd760" fill-opacity="1"><g transform="translate(507.92974, 444.262017)"><g><path d="M 7.921875 0 L 7.921875 -88.03125 L 52.0625 -88.03125 C 56.34375 -88.03125 60.304688 -87.335938 63.953125 -85.953125 C 67.597656 -84.578125 70.71875 -82.671875 73.3125 -80.234375 C 75.914062 -77.804688 77.953125 -74.894531 79.421875 -71.5 C 80.890625 -68.101562 81.625 -64.394531 81.625 -60.375 C 81.625 -56.425781 80.890625 -52.796875 79.421875 -49.484375 C 77.953125 -46.171875 75.894531 -43.300781 73.25 -40.875 C 70.613281 -38.445312 67.492188 -36.5625 63.890625 -35.21875 C 60.285156 -33.875 56.34375 -33.203125 52.0625 -33.203125 L 26.15625 -33.203125 L 26.15625 0 Z M 50.0625 -72.3125 L 26.15625 -72.3125 L 26.15625 -48.296875 L 50.0625 -48.296875 C 54 -48.296875 57.160156 -49.382812 59.546875 -51.5625 C 61.941406 -53.738281 63.140625 -56.628906 63.140625 -60.234375 C 63.140625 -63.847656 61.941406 -66.765625 59.546875 -68.984375 C 57.160156 -71.203125 54 -72.3125 50.0625 -72.3125 Z M 50.0625 -72.3125 "/></g></g></g><g fill="#1dd760" fill-opacity="1"><g transform="translate(584.140612, 444.262017)"><g><path d="M 3.765625 -32.703125 C 3.765625 -37.484375 4.664062 -41.945312 6.46875 -46.09375 C 8.28125 -50.238281 10.753906 -53.84375 13.890625 -56.90625 C 17.035156 -59.96875 20.742188 -62.378906 25.015625 -64.140625 C 29.296875 -65.898438 33.867188 -66.78125 38.734375 -66.78125 C 43.597656 -66.78125 48.164062 -65.898438 52.4375 -64.140625 C 56.71875 -62.378906 60.429688 -59.96875 63.578125 -56.90625 C 66.722656 -53.84375 69.195312 -50.238281 71 -46.09375 C 72.800781 -41.945312 73.703125 -37.484375 73.703125 -32.703125 C 73.703125 -27.921875 72.800781 -23.453125 71 -19.296875 C 69.195312 -15.148438 66.722656 -11.566406 63.578125 -8.546875 C 60.429688 -5.535156 56.71875 -3.148438 52.4375 -1.390625 C 48.164062 0.367188 43.597656 1.25 38.734375 1.25 C 33.867188 1.25 29.296875 0.367188 25.015625 -1.390625 C 20.742188 -3.148438 17.035156 -5.535156 13.890625 -8.546875 C 10.753906 -11.566406 8.28125 -15.148438 6.46875 -19.296875 C 4.664062 -23.453125 3.765625 -27.921875 3.765625 -32.703125 Z M 38.734375 -13.703125 C 43.765625 -13.703125 48.039062 -15.546875 51.5625 -19.234375 C 55.082031 -22.929688 56.84375 -27.421875 56.84375 -32.703125 C 56.84375 -38.066406 55.082031 -42.59375 51.5625 -46.28125 C 48.039062 -49.96875 43.765625 -51.8125 38.734375 -51.8125 C 33.703125 -51.8125 29.425781 -49.96875 25.90625 -46.28125 C 22.382812 -42.59375 20.625 -38.066406 20.625 -32.703125 C 20.625 -27.421875 22.382812 -22.929688 25.90625 -19.234375 C 29.425781 -15.546875 33.703125 -13.703125 38.734375 -13.703125 Z M 38.734375 -13.703125 "/></g></g></g><g fill="#1dd760" fill-opacity="1"><g transform="translate(652.176997, 444.262017)"><g><path d="M 3.765625 -32.703125 C 3.765625 -37.484375 4.664062 -41.945312 6.46875 -46.09375 C 8.28125 -50.238281 10.753906 -53.84375 13.890625 -56.90625 C 17.035156 -59.96875 20.742188 -62.378906 25.015625 -64.140625 C 29.296875 -65.898438 33.867188 -66.78125 38.734375 -66.78125 C 43.597656 -66.78125 48.164062 -65.898438 52.4375 -64.140625 C 56.71875 -62.378906 60.429688 -59.96875 63.578125 -56.90625 C 66.722656 -53.84375 69.195312 -50.238281 71 -46.09375 C 72.800781 -41.945312 73.703125 -37.484375 73.703125 -32.703125 C 73.703125 -27.921875 72.800781 -23.453125 71 -19.296875 C 69.195312 -15.148438 66.722656 -11.566406 63.578125 -8.546875 C 60.429688 -5.535156 56.71875 -3.148438 52.4375 -1.390625 C 48.164062 0.367188 43.597656 1.25 38.734375 1.25 C 33.867188 1.25 29.296875 0.367188 25.015625 -1.390625 C 20.742188 -3.148438 17.035156 -5.535156 13.890625 -8.546875 C 10.753906 -11.566406 8.28125 -15.148438 6.46875 -19.296875 C 4.664062 -23.453125 3.765625 -27.921875 3.765625 -32.703125 Z M 38.734375 -13.703125 C 43.765625 -13.703125 48.039062 -15.546875 51.5625 -19.234375 C 55.082031 -22.929688 56.84375 -27.421875 56.84375 -32.703125 C 56.84375 -38.066406 55.082031 -42.59375 51.5625 -46.28125 C 48.039062 -49.96875 43.765625 -51.8125 38.734375 -51.8125 C 33.703125 -51.8125 29.425781 -49.96875 25.90625 -46.28125 C 22.382812 -42.59375 20.625 -38.066406 20.625 -32.703125 C 20.625 -27.421875 22.382812 -22.929688 25.90625 -19.234375 C 29.425781 -15.546875 33.703125 -13.703125 38.734375 -13.703125 Z M 38.734375 -13.703125 "/></g></g></g><g fill="#1dd760" fill-opacity="1"><g transform="translate(720.213383, 444.262017)"><g><path d="M 24.015625 -91.8125 L 24.015625 0 L 6.796875 0 L 6.796875 -88.03125 Z M 24.015625 -91.8125 "/></g></g></g><g clip-path="url(#192a54c451)"><g clip-path="url(#492a32ef33)"><path fill="#545454" d="M 2.945312 499.289062 L 810.726562 499.289062 L 810.726562 517.664062 L 2.945312 517.664062 Z M 2.945312 499.289062 " fill-opacity="1" fill-rule="nonzero"/></g></g><g clip-path="url(#880e0fa24f)"><g clip-path="url(#ccc695efe7)"><path fill="#545454" d="M 786.332031 288.75 L 804.953125 288.75 L 804.953125 517.640625 L 786.332031 517.640625 Z M 786.332031 288.75 " fill-opacity="1" fill-rule="nonzero"/></g></g><g clip-path="url(#e8486d7a04)"><g clip-path="url(#b9931872d3)"><path fill="#545454" d="M 0 298.121094 L 810.675781 298.121094 L 810.675781 316.054688 L 0 316.054688 Z M 0 298.121094 " fill-opacity="1" fill-rule="nonzero"/></g></g><g clip-path="url(#5c794103f0)"><g clip-path="url(#5676fa80bf)"><path fill="#545454" d="M 8.03125 288.75 L 24.082031 288.75 L 24.082031 521.277344 L 8.03125 521.277344 Z M 8.03125 288.75 " fill-opacity="1" fill-rule="nonzero"/></g></g><g clip-path="url(#38408395a3)"><g clip-path="url(#1701c6dd94)"><path fill="#016c27" d="M 321.726562 406.035156 L 336.664062 406.035156 L 336.664062 420.972656 L 321.726562 420.972656 Z M 321.726562 406.035156 " fill-opacity="1" fill-rule="nonzero"/></g></g><g clip-path="url(#c0b5e3f8a0)"><g clip-path="url(#5ac9e464bd)"><path fill="#016c27" d="M 323.300781 401.605469 L 338.238281 401.605469 L 338.238281 416.542969 L 323.300781 416.542969 Z M 323.300781 401.605469 " fill-opacity="1" fill-rule="nonzero"/></g></g><g clip-path="url(#629af7dd25)"><g clip-path="url(#72eb2d6d84)"><path fill="#016c27" d="M 454.140625 403.105469 L 469.097656 403.105469 L 469.097656 417.667969 L 454.140625 417.667969 Z M 454.140625 403.105469 " fill-opacity="1" fill-rule="nonzero"/></g></g><g clip-path="url(#ee677e695a)"><g clip-path="url(#174e16abbb)"><path fill="#016c27" d="M 617.703125 404.53125 L 632.265625 404.53125 L 632.265625 419.09375 L 617.703125 419.09375 Z M 617.703125 404.53125 " fill-opacity="1" fill-rule="nonzero"/></g></g><g clip-path="url(#254bced085)"><g clip-path="url(#0fb4df7871)"><path fill="#016c27" d="M 686.164062 403.554688 L 701.125 403.554688 L 701.125 418.117188 L 686.164062 418.117188 Z M 686.164062 403.554688 " fill-opacity="1" fill-rule="nonzero"/></g></g></svg>